<?xml version="1.0"?>
<svg width="270" height="230" xmlns="http://www.w3.org/2000/svg">
 <!-- Created with Method Draw - http://github.com/duopixel/Method-Draw/ -->
 <g>
  <title>background</title>
  <rect fill="none" id="canvas_background" height="232" width="272" y="-1" x="-1"/>
  <g display="none" overflow="visible" y="0" x="0" height="100%" width="100%" id="canvasGrid">
   <rect fill="url(#gridpattern)" stroke-width="0" y="0" x="0" height="100%" width="100%"/>
  </g>
 </g>
 <g>
  <title>Layer 1</title>
  <path id="svg_1" d="m190.507889,39.178352c0.112137,-1.046837 0.177048,-2.102463 0.177048,-3.173943c0,-18.502792 -17.078217,-33.50441 -38.162064,-33.50441c-16.351501,0 -30.270416,9.054901 -35.702011,21.758499c-3.59697,-3.460129 -8.721222,-5.676964 -14.478256,-5.676964c-10.854729,0 -19.659088,7.729973 -19.659088,17.259232c0,1.128998 0.139824,2.224854 0.382111,3.288246c-14.487869,2.094231 -25.565636,13.055054 -25.565636,26.363525c0,14.805634 13.668182,26.805527 30.53196,26.805527l14.114174,0c-0.772652,-1.431488 -1.219872,-2.985809 -1.219872,-4.605499c0,-2.871048 1.266884,-5.578568 3.577667,-7.59082l26.413055,-23.206238c2.292725,-2.020416 5.358063,-3.132629 8.627151,-3.132629c3.299271,0 6.364609,1.120667 8.656097,3.148956l26.394974,23.206238c2.301117,1.995926 3.568008,4.703445 3.568008,7.574493c0,1.627853 -0.447174,3.182159 -1.219925,4.605499l8.012482,0c16.86377,0 30.530685,-11.999893 30.530685,-26.805527c0.009644,-13.144852 -10.770477,-24.023895 -24.978561,-26.314186zm-46.649551,21.50457c-1.174057,-1.046875 -2.748398,-1.562378 -4.304565,-1.562378s-3.130447,0.515503 -4.322601,1.562378l-26.413086,23.214447c-2.38549,2.085831 -2.375847,5.488358 0,7.574524l3.400513,2.977127c2.375854,2.086258 5.878784,2.404968 7.788193,0.736359s3.466782,-0.637909 3.466782,2.314774l0,6.634003c0,2.944626 2.756775,5.365845 6.101761,5.365845l19.938797,0c3.363129,0 6.11145,-2.421219 6.11145,-5.365845l0,-6.634003c0,-2.952682 1.556137,-3.991547 3.4655,-2.314774c1.910706,1.66861 5.423172,1.349899 7.799042,-0.736359l3.390869,-2.977127c2.385513,-2.086166 2.385513,-5.488693 0.009644,-7.574524l-26.432297,-23.214447z" stroke-width="0" fill="#000"/>
  <text transform="matrix(1.58621 0 0 1.91429 -118.707 -250.057)" stroke="#fff" font-weight="bold" xml:space="preserve" text-anchor="left" font-family="'Trebuchet MS', Gadget, sans-serif" font-size="24" id="svg_2" y="221.370171" x="74.808387" stroke-width="0" fill="#000000">Drop files</text>
  <text transform="matrix(1.58621 0 0 1.91429 -118.707 -250.057)" stroke="#fff" font-weight="normal" xml:space="preserve" text-anchor="left" font-family="'Trebuchet MS', Gadget, sans-serif" font-size="14" id="svg_3" y="218.235946" x="187.656241" stroke-width="0" fill="#000000">(or click)</text>
  <text font-style="italic" transform="matrix(1.58621 0 0 1.91429 -118.707 -250.057)" stroke="#fff" font-weight="normal" xml:space="preserve" text-anchor="left" font-family="'Trebuchet MS', Gadget, sans-serif" font-size="18" id="svg_4" y="246.444833" x="121.460663" stroke-width="0" fill="#000000">to upload</text>
 </g>
</svg>